#N canvas 261 494 1063 413 10;
#X declare -lib mrpeach;
#X obj 33 60 import mrpeach;
#X obj 33 209 udpsend;
#X obj 49 175 packOSC;
#X floatatom 49 115 5 0 0 0 - - -;
#X msg 49 145 send /blobs/0/pos/x \$1;
#X floatatom 195 115 5 0 0 0 - - -;
#X msg 195 145 send /blobs/0/pos/y \$1;
#X floatatom 343 114 5 0 0 0 - - -;
#X msg 343 144 send /blobs/0/color/r \$1;
#X floatatom 501 113 5 0 0 0 - - -;
#X msg 501 143 send /blobs/0/color/g \$1;
#X floatatom 660 112 5 0 0 0 - - -;
#X msg 660 142 send /blobs/0/color/b \$1;
#X msg 34 89 connect localhost 44000;
#X connect 2 0 1 0;
#X connect 3 0 4 0;
#X connect 4 0 2 0;
#X connect 5 0 6 0;
#X connect 6 0 2 0;
#X connect 7 0 8 0;
#X connect 8 0 2 0;
#X connect 9 0 10 0;
#X connect 10 0 2 0;
#X connect 11 0 12 0;
#X connect 12 0 2 0;
#X connect 13 0 1 0;
