#N canvas 1470 392 831 426 10;
#X declare -lib mrpeach;
#X obj 36 41 import mrpeach;
#X obj 141 354 udpsend;
#X obj 372 338 packOSC;
#X floatatom 200 20 5 0 0 0 - - -;
#X obj 465 198 print;
#X floatatom 267 13 5 0 0 0 - - -;
#X msg 40 113 connect localhost 10000;
#X floatatom 332 8 5 0 0 0 - - -;
#X floatatom 417 18 5 0 0 0 - - -;
#X floatatom 456 20 5 0 0 0 - - -;
#X floatatom 497 21 5 0 0 0 - - -;
#X floatatom 551 17 5 0 0 0 - - -;
#X floatatom 605 18 5 0 0 0 - - -;
#X floatatom 652 24 5 0 0 0 - - -;
#X floatatom 698 24 5 0 0 0 - - -;
#X obj 428 146 pack 0 0 0 0 0 0 0 0 0 0;
#X obj 590 37 t b f;
#X obj 488 49 t b f;
#X text 196 4 x1;
#X text 501 2 x2;
#X text 568 2 y2;
#X text 609 1 r2;
#X text 647 4 g2;
#X text 699 6 b2;
#X text 246 0 y1;
#X text 367 3 r1;
#X text 403 1 g1;
#X text 456 1 b1;
#X msg 240 230 send /x1pos \$1 \, send /y1pos \$2 \, send /r1 \$3 \,
send /g1 \$4 \, send /b1 \$5 \, send /x2pos \$6 \, send /y2pos \$7
\, send /r1 \$8 \, send /g2 \$9 \, send /b2 \$10;
#X obj 383 41 t b f;
#X obj 352 67 t b f;
#X obj 539 53 t b f;
#X connect 2 0 1 0;
#X connect 3 0 15 0;
#X connect 5 0 30 0;
#X connect 6 0 1 0;
#X connect 7 0 29 0;
#X connect 8 0 15 3;
#X connect 9 0 15 4;
#X connect 10 0 17 0;
#X connect 11 0 31 0;
#X connect 12 0 16 0;
#X connect 13 0 15 8;
#X connect 14 0 15 9;
#X connect 15 0 28 0;
#X connect 15 0 4 0;
#X connect 16 0 15 0;
#X connect 16 1 15 7;
#X connect 17 0 15 0;
#X connect 17 1 15 5;
#X connect 28 0 2 0;
#X connect 29 0 15 0;
#X connect 29 1 15 2;
#X connect 30 0 15 0;
#X connect 30 1 15 1;
#X connect 31 0 15 0;
#X connect 31 1 15 6;

