#N canvas 1404 667 1239 440 10;
#X declare -lib mrpeach;
#X obj 36 41 import mrpeach;
#X obj 141 354 udpsend;
#X obj 372 338 packOSC;
#X floatatom 200 20 5 0 0 0 - - -;
#X obj 465 198 print;
#X floatatom 267 13 5 0 0 0 - - -;
#X msg 40 113 connect localhost 10000;
#X floatatom 332 8 5 0 0 0 - - -;
#X floatatom 417 18 5 0 0 0 - - -;
#X floatatom 456 20 5 0 0 0 - - -;
#X floatatom 498 19 5 0 0 0 - - -;
#X floatatom 551 17 5 0 0 0 - - -;
#X floatatom 605 18 5 0 0 0 - - -;
#X floatatom 652 24 5 0 0 0 - - -;
#X floatatom 698 24 5 0 0 0 - - -;
#X obj 590 37 t b f;
#X obj 488 49 t b f;
#X text 196 4 x1;
#X text 501 2 x2;
#X text 568 2 y2;
#X text 609 1 r2;
#X text 647 4 g2;
#X text 699 6 b2;
#X text 246 0 y1;
#X text 367 3 r1;
#X text 403 1 g1;
#X text 456 1 b1;
#X obj 383 41 t b f;
#X obj 352 67 t b f;
#X obj 539 53 t b f;
#X floatatom 766 17 5 0 0 0 - - -;
#X floatatom 809 20 5 0 0 0 - - -;
#X floatatom 851 19 5 0 0 0 - - -;
#X floatatom 966 15 5 0 0 0 - - -;
#X floatatom 908 11 5 0 0 0 - - -;
#X obj 787 175 t b f;
#X text 773 1 x3;
#X text 815 1 y3;
#X text 853 0 r3;
#X text 969 -2 b3;
#X text 920 -5 g3;
#X msg 240 230 send /x1pos \$1 \, send /y1pos \$2 \, send /r1 \$3 \,
send /g1 \$4 \, send /b1 \$5 \, send /x2pos \$6 \, send /y2pos \$7
\, send /r1 \$8 \, send /g2 \$9 \, send /b2 \$10 \, send /x3pos \$11
\, send /y3pos \$12 \, send /r3 \$13 \, send /g3 \$14 \, send /b3 \$15
;
#X obj 428 146 pack 0 0 0 0 0 0 0 0 0 0 0 0 0 0 0;
#X obj 646 212 t b f;
#X obj 739 239 t b f;
#X connect 2 0 1 0;
#X connect 3 0 42 0;
#X connect 5 0 28 0;
#X connect 6 0 1 0;
#X connect 7 0 27 0;
#X connect 8 0 42 3;
#X connect 9 0 42 4;
#X connect 10 0 16 0;
#X connect 11 0 29 0;
#X connect 12 0 15 0;
#X connect 13 0 42 8;
#X connect 14 0 42 9;
#X connect 15 0 42 0;
#X connect 15 1 42 7;
#X connect 16 0 42 0;
#X connect 16 1 42 5;
#X connect 27 0 42 0;
#X connect 27 1 42 2;
#X connect 28 0 42 0;
#X connect 28 1 42 1;
#X connect 29 0 42 0;
#X connect 29 1 42 6;
#X connect 30 0 43 0;
#X connect 31 0 44 0;
#X connect 32 0 35 0;
#X connect 33 0 42 14;
#X connect 34 0 42 13;
#X connect 35 0 42 0;
#X connect 35 1 42 12;
#X connect 41 0 2 0;
#X connect 42 0 41 0;
#X connect 42 0 4 0;
#X connect 43 0 42 0;
#X connect 43 1 42 10;
#X connect 44 0 42 0;
#X connect 44 1 42 11;

